<svg xmlns="http://www.w3.org/2000/svg" xmlns:xlink="http://www.w3.org/1999/xlink" width="1310" height="667.88"><rect width="1310" height="667.88" rx="5" ry="5" class="a"/><svg y="0%" x="0%"><circle cx="20" cy="20" r="6" fill="#ff5f58"/><circle cx="40" cy="20" r="6" fill="#ffbd2e"/><circle cx="60" cy="20" r="6" fill="#18c132"/></svg><svg height="607.88" viewBox="0 0 127 60.788" width="1270" x="15" xmlns="http://www.w3.org/2000/svg" xmlns:xlink="http://www.w3.org/1999/xlink" y="50"><style>@keyframes i{0%{transform:translateX(0)}.02%{transform:translateX(-127px)}1.44%{transform:translateX(-254px)}2.87%{transform:translateX(-381px)}4.3%{transform:translateX(-508px)}5.73%{transform:translateX(-635px)}7.16%{transform:translateX(-762px)}8.59%{transform:translateX(-889px)}10.01%{transform:translateX(-1016px)}11.44%{transform:translateX(-1143px)}12.87%{transform:translateX(-1270px)}14.3%{transform:translateX(-1397px)}15.73%{transform:translateX(-1524px)}17.15%{transform:translateX(-1651px)}18.58%{transform:translateX(-1778px)}20.01%{transform:translateX(-1905px)}21.44%{transform:translateX(-2032px)}22.87%{transform:translateX(-2159px)}24.29%{transform:translateX(-2286px)}25.72%{transform:translateX(-2413px)}27.15%{transform:translateX(-2540px)}28.58%{transform:translateX(-2667px)}30.01%{transform:translateX(-2794px)}31.44%{transform:translateX(-2921px)}32.86%{transform:translateX(-3048px)}34.29%{transform:translateX(-3175px)}35.72%{transform:translateX(-3302px)}37.15%{transform:translateX(-3429px)}38.58%{transform:translateX(-3556px)}40.01%{transform:translateX(-3683px)}41.44%{transform:translateX(-3810px)}42.86%{transform:translateX(-3937px)}44.29%{transform:translateX(-4064px)}45.72%{transform:translateX(-4318px)}47.15%{transform:translateX(-4445px)}48.58%{transform:translateX(-4572px)}50.01%{transform:translateX(-4699px)}51.44%{transform:translateX(-4826px)}52.86%{transform:translateX(-4953px)}54.29%{transform:translateX(-5080px)}55.72%{transform:translateX(-5207px)}57.15%{transform:translateX(-5334px)}58.58%{transform:translateX(-5461px)}60.01%{transform:translateX(-5588px)}61.43%{transform:translateX(-5715px)}62.86%{transform:translateX(-5842px)}64.29%{transform:translateX(-5969px)}65.72%{transform:translateX(-6096px)}67.15%{transform:translateX(-6223px)}68.58%{transform:translateX(-6350px)}70%{transform:translateX(-6477px)}71.43%{transform:translateX(-6604px)}72.86%{transform:translateX(-6731px)}74.29%{transform:translateX(-6858px)}75.72%{transform:translateX(-6985px)}77.15%{transform:translateX(-7112px)}78.58%{transform:translateX(-7239px)}80%{transform:translateX(-7366px)}81.43%{transform:translateX(-7620px)}82.86%{transform:translateX(-7747px)}84.29%{transform:translateX(-7874px)}85.72%{transform:translateX(-8001px)}87.14%{transform:translateX(-8128px)}88.57%{transform:translateX(-8255px)}90%{transform:translateX(-8382px)}91.43%{transform:translateX(-8509px)}92.86%{transform:translateX(-8636px)}94.28%{transform:translateX(-8763px)}95.71%{transform:translateX(-8890px)}97.14%{transform:translateX(-9017px)}98.57%{transform:translateX(-9144px)}to{transform:translateX(-9271px)}}.a{fill:#282d35}.f{fill:#b9c0cb;white-space:pre}</style><g font-family="Monaco,Consolas,Menlo,'Bitstream Vera Sans Mono','Powerline Symbols',monospace" font-size="1.67"><defs><symbol id="11"><text y="1.67" class="f">|</text><text x="2.004" y="1.67" class="f">|X--+</text><text x="8.016" y="1.67" class="f">|</text><text x="10.02" y="1.67" class="f">|</text></symbol><symbol id="1"><text y="1.67" class="f">+-+---+---+</text></symbol><symbol id="3"><text y="1.67" class="f">|</text><text x="2.004" y="1.67" class="f">|</text><text x="6.012" y="1.67" class="f">|</text><text x="8.016" y="1.67" class="f">|</text><text x="10.02" y="1.67" class="f">|</text></symbol><symbol id="4"><text y="1.67" class="f">|</text><text x="2.004" y="1.67" class="f">+--</text><text x="6.012" y="1.67" class="f">|</text><text x="8.016" y="1.67" class="f">|</text><text x="10.02" y="1.67" class="f">|</text></symbol><symbol id="5"><text y="1.67" class="f">|</text><text x="6.012" y="1.67" class="f">|</text><text x="10.02" y="1.67" class="f">|</text></symbol><symbol id="6"><text y="1.67" class="f">+-----+---+</text></symbol><symbol id="7"><text y="1.67" class="f">|</text><text x="2.004" y="1.67" class="f">|</text><text x="8.016" y="1.67" class="f">|#|</text></symbol><symbol id="8"><text y="1.67" class="f">|</text><text x="3.006" y="1.67" class="f">X</text><text x="6.012" y="1.67" class="f">|</text><text x="10.02" y="1.67" class="f">|</text></symbol><symbol id="9"><text y="1.67" class="f">|</text><text x="5.01" y="1.67" class="f">X|</text><text x="10.02" y="1.67" class="f">|</text></symbol><symbol id="10"><text y="1.67" class="f">|</text><text x="2.004" y="1.67" class="f">|X</text><text x="6.012" y="1.67" class="f">|</text><text x="8.016" y="1.67" class="f">|</text><text x="10.02" y="1.67" class="f">|</text></symbol><symbol id="2"><text y="1.67" class="f">|</text><text x="2.004" y="1.67" class="f">|</text><text x="4.008" y="1.67" class="f">--+</text><text x="8.016" y="1.67" class="f">|</text><text x="10.02" y="1.67" class="f">|</text></symbol><symbol id="12"><text y="1.67" class="f">|</text><text x="2.004" y="1.67" class="f">|X</text><text x="8.016" y="1.67" class="f">|#|</text></symbol><symbol id="13"><text y="1.67" class="f">|</text><text x="2.004" y="1.67" class="f">|</text><text x="5.01" y="1.67" class="f">X</text><text x="8.016" y="1.67" class="f">|#|</text></symbol><symbol id="14"><text y="1.67" class="f">|</text><text x="2.004" y="1.67" class="f">|</text><text x="6.012" y="1.67" class="f">|X|</text><text x="10.02" y="1.67" class="f">|</text></symbol><symbol id="15"><text y="1.67" class="f">|</text><text x="2.004" y="1.67" class="f">+--</text><text x="6.012" y="1.67" class="f">|X|</text><text x="10.02" y="1.67" class="f">|</text></symbol><symbol id="16"><text y="1.67" class="f">|</text><text x="6.012" y="1.67" class="f">|X</text><text x="10.02" y="1.67" class="f">|</text></symbol><symbol id="17"><text y="1.67" class="f">|</text><text x="6.012" y="1.67" class="f">|</text><text x="9.018" y="1.67" class="f">X|</text></symbol><symbol id="18"><text y="1.67" class="f">|</text><text x="2.004" y="1.67" class="f">|</text><text x="6.012" y="1.67" class="f">|</text><text x="8.016" y="1.67" class="f">|X|</text></symbol><symbol id="a"><path fill="transparent" d="M0 0h127v28H0z"/></symbol><symbol id="b"><path fill="#6f7683" d="M0 0h1.102v2.171H0z"/></symbol></defs><path class="a" d="M0 0h127v60.788H0z"/><g style="animation-duration:35.139206s;animation-iteration-count:infinite;animation-name:i;animation-timing-function:steps(1,end)"><svg width="9398"><svg><use xlink:href="#a"/><use xlink:href="#b" x="-.004"/></svg><svg x="127"><use xlink:href="#a"/><use xlink:href="#b" x="-.004" y="17.343"/><use xlink:href="#1"/><text y="3.841" class="f">|X|</text><text x="8.016" y="3.841" class="f">|#|</text><use xlink:href="#2" y="4.342"/><use xlink:href="#3" y="6.513"/><use xlink:href="#4" y="8.684"/><use xlink:href="#5" y="10.855"/><use xlink:href="#6" y="13.026"/></svg><svg x="254"><use xlink:href="#a"/><use xlink:href="#b" x="-.004" y="17.343"/><use xlink:href="#1"/><use xlink:href="#7" y="2.171"/><text y="6.012" class="f">|X|</text><text x="4.008" y="6.012" class="f">--+</text><text x="8.016" y="6.012" class="f">|</text><text x="10.02" y="6.012" class="f">|</text><use xlink:href="#3" y="6.513"/><use xlink:href="#4" y="8.684"/><use xlink:href="#5" y="10.855"/><use xlink:href="#6" y="13.026"/></svg><svg x="381"><use xlink:href="#a"/><use xlink:href="#b" x="-.004" y="17.343"/><use xlink:href="#1"/><use xlink:href="#7" y="2.171"/><use xlink:href="#2" y="4.342"/><text y="8.183" class="f">|X|</text><text x="6.012" y="8.183" class="f">|</text><text x="8.016" y="8.183" class="f">|</text><text x="10.02" y="8.183" class="f">|</text><use xlink:href="#4" y="8.684"/><use xlink:href="#5" y="10.855"/><use xlink:href="#6" y="13.026"/></svg><svg x="508"><use xlink:href="#a"/><use xlink:href="#b" x="-.004" y="17.343"/><use xlink:href="#1"/><use xlink:href="#7" y="2.171"/><use xlink:href="#2" y="4.342"/><use xlink:href="#3" y="6.513"/><text y="10.354" class="f">|X+--</text><text x="6.012" y="10.354" class="f">|</text><text x="8.016" y="10.354" class="f">|</text><text x="10.02" y="10.354" class="f">|</text><use xlink:href="#5" y="10.855"/><use xlink:href="#6" y="13.026"/></svg><svg x="635"><use xlink:href="#a"/><use xlink:href="#b" x="-.004" y="17.343"/><use xlink:href="#1"/><use xlink:href="#7" y="2.171"/><use xlink:href="#2" y="4.342"/><use xlink:href="#3" y="6.513"/><use xlink:href="#4" y="8.684"/><text y="12.525" class="f">|X</text><text x="6.012" y="12.525" class="f">|</text><text x="10.02" y="12.525" class="f">|</text><use xlink:href="#6" y="13.026"/></svg><svg x="762"><use xlink:href="#a"/><use xlink:href="#b" x="-.004" y="17.343"/><use xlink:href="#1"/><use xlink:href="#7" y="2.171"/><use xlink:href="#2" y="4.342"/><use xlink:href="#3" y="6.513"/><use xlink:href="#4" y="8.684"/><text y="12.525" class="f">|</text><text x="2.004" y="12.525" class="f">X</text><text x="6.012" y="12.525" class="f">|</text><text x="10.02" y="12.525" class="f">|</text><use xlink:href="#6" y="13.026"/></svg><svg x="889"><use xlink:href="#a"/><use xlink:href="#b" x="-.004" y="17.343"/><use xlink:href="#1"/><use xlink:href="#7" y="2.171"/><use xlink:href="#2" y="4.342"/><use xlink:href="#3" y="6.513"/><use xlink:href="#4" y="8.684"/><use xlink:href="#8" y="10.855"/><use xlink:href="#6" y="13.026"/></svg><svg x="1016"><use xlink:href="#a"/><use xlink:href="#b" x="-.004" y="17.343"/><use xlink:href="#1"/><use xlink:href="#7" y="2.171"/><use xlink:href="#2" y="4.342"/><use xlink:href="#3" y="6.513"/><use xlink:href="#4" y="8.684"/><use xlink:href="#8" y="10.855"/><use xlink:href="#6" y="13.026"/></svg><svg x="1143"><use xlink:href="#a"/><use xlink:href="#b" x="-.004" y="17.343"/><use xlink:href="#1"/><use xlink:href="#7" y="2.171"/><use xlink:href="#2" y="4.342"/><use xlink:href="#3" y="6.513"/><use xlink:href="#4" y="8.684"/><use xlink:href="#8" y="10.855"/><use xlink:href="#6" y="13.026"/></svg><svg x="1270"><use xlink:href="#a"/><use xlink:href="#b" x="-.004" y="17.343"/><use xlink:href="#1"/><use xlink:href="#7" y="2.171"/><use xlink:href="#2" y="4.342"/><use xlink:href="#3" y="6.513"/><use xlink:href="#4" y="8.684"/><use xlink:href="#8" y="10.855"/><use xlink:href="#6" y="13.026"/></svg><svg x="1397"><use xlink:href="#a"/><use xlink:href="#b" x="-.004" y="17.343"/><use xlink:href="#1"/><use xlink:href="#7" y="2.171"/><use xlink:href="#2" y="4.342"/><use xlink:href="#3" y="6.513"/><use xlink:href="#4" y="8.684"/><use xlink:href="#8" y="10.855"/><use xlink:href="#6" y="13.026"/></svg><svg x="1524"><use xlink:href="#a"/><use xlink:href="#b" x="-.004" y="17.343"/><use xlink:href="#1"/><use xlink:href="#7" y="2.171"/><use xlink:href="#2" y="4.342"/><use xlink:href="#3" y="6.513"/><use xlink:href="#4" y="8.684"/><text y="12.525" class="f">|</text><text x="4.008" y="12.525" class="f">X</text><text x="6.012" y="12.525" class="f">|</text><text x="10.02" y="12.525" class="f">|</text><use xlink:href="#6" y="13.026"/></svg><svg x="1651"><use xlink:href="#a"/><use xlink:href="#b" x="-.004" y="17.343"/><use xlink:href="#1"/><use xlink:href="#7" y="2.171"/><use xlink:href="#2" y="4.342"/><use xlink:href="#3" y="6.513"/><use xlink:href="#4" y="8.684"/><use xlink:href="#9" y="10.855"/><use xlink:href="#6" y="13.026"/></svg><svg x="1778"><use xlink:href="#a"/><use xlink:href="#b" x="-.004" y="17.343"/><use xlink:href="#1"/><use xlink:href="#7" y="2.171"/><use xlink:href="#2" y="4.342"/><use xlink:href="#3" y="6.513"/><use xlink:href="#4" y="8.684"/><use xlink:href="#9" y="10.855"/><use xlink:href="#6" y="13.026"/></svg><svg x="1905"><use xlink:href="#a"/><use xlink:href="#b" x="-.004" y="17.343"/><use xlink:href="#1"/><use xlink:href="#7" y="2.171"/><use xlink:href="#2" y="4.342"/><use xlink:href="#3" y="6.513"/><use xlink:href="#4" y="8.684"/><use xlink:href="#9" y="10.855"/><use xlink:href="#6" y="13.026"/></svg><svg x="2032"><use xlink:href="#a"/><use xlink:href="#b" x="-.004" y="17.343"/><use xlink:href="#1"/><use xlink:href="#7" y="2.171"/><use xlink:href="#2" y="4.342"/><use xlink:href="#3" y="6.513"/><use xlink:href="#4" y="8.684"/><use xlink:href="#9" y="10.855"/><use xlink:href="#6" y="13.026"/></svg><svg x="2159"><use xlink:href="#a"/><use xlink:href="#b" x="-.004" y="17.343"/><use xlink:href="#1"/><use xlink:href="#7" y="2.171"/><use xlink:href="#2" y="4.342"/><use xlink:href="#3" y="6.513"/><text y="10.354" class="f">|</text><text x="2.004" y="10.354" class="f">+--X|</text><text x="8.016" y="10.354" class="f">|</text><text x="10.02" y="10.354" class="f">|</text><use xlink:href="#5" y="10.855"/><use xlink:href="#6" y="13.026"/></svg><svg x="2286"><use xlink:href="#a"/><use xlink:href="#b" x="-.004" y="17.343"/><use xlink:href="#1"/><use xlink:href="#7" y="2.171"/><use xlink:href="#2" y="4.342"/><text y="8.183" class="f">|</text><text x="2.004" y="8.183" class="f">|</text><text x="5.01" y="8.183" class="f">X|</text><text x="8.016" y="8.183" class="f">|</text><text x="10.02" y="8.183" class="f">|</text><use xlink:href="#4" y="8.684"/><use xlink:href="#5" y="10.855"/><use xlink:href="#6" y="13.026"/></svg><svg x="2413"><use xlink:href="#a"/><use xlink:href="#b" x="-.004" y="17.343"/><use xlink:href="#1"/><use xlink:href="#7" y="2.171"/><use xlink:href="#2" y="4.342"/><text y="8.183" class="f">|</text><text x="2.004" y="8.183" class="f">|</text><text x="4.008" y="8.183" class="f">X</text><text x="6.012" y="8.183" class="f">|</text><text x="8.016" y="8.183" class="f">|</text><text x="10.02" y="8.183" class="f">|</text><use xlink:href="#4" y="8.684"/><use xlink:href="#5" y="10.855"/><use xlink:href="#6" y="13.026"/></svg><svg x="2540"><use xlink:href="#a"/><use xlink:href="#b" x="-.004" y="17.343"/><use xlink:href="#1"/><use xlink:href="#7" y="2.171"/><use xlink:href="#2" y="4.342"/><use xlink:href="#10" y="6.513"/><use xlink:href="#4" y="8.684"/><use xlink:href="#5" y="10.855"/><use xlink:href="#6" y="13.026"/></svg><svg x="2667"><use xlink:href="#a"/><use xlink:href="#b" x="-.004" y="17.343"/><use xlink:href="#1"/><use xlink:href="#7" y="2.171"/><use xlink:href="#2" y="4.342"/><use xlink:href="#10" y="6.513"/><use xlink:href="#4" y="8.684"/><use xlink:href="#5" y="10.855"/><use xlink:href="#6" y="13.026"/></svg><svg x="2794"><use xlink:href="#a"/><use xlink:href="#b" x="-.004" y="17.343"/><use xlink:href="#1"/><use xlink:href="#7" y="2.171"/><use xlink:href="#11" y="4.342"/><use xlink:href="#3" y="6.513"/><use xlink:href="#4" y="8.684"/><use xlink:href="#5" y="10.855"/><use xlink:href="#6" y="13.026"/></svg><svg x="2921"><use xlink:href="#a"/><use xlink:href="#b" x="-.004" y="17.343"/><use xlink:href="#1"/><use xlink:href="#12" y="2.171"/><use xlink:href="#2" y="4.342"/><use xlink:href="#3" y="6.513"/><use xlink:href="#4" y="8.684"/><use xlink:href="#5" y="10.855"/><use xlink:href="#6" y="13.026"/></svg><svg x="3048"><use xlink:href="#a"/><use xlink:href="#b" x="-.004" y="17.343"/><use xlink:href="#1"/><use xlink:href="#7" y="2.171"/><use xlink:href="#11" y="4.342"/><use xlink:href="#3" y="6.513"/><use xlink:href="#4" y="8.684"/><use xlink:href="#5" y="10.855"/><use xlink:href="#6" y="13.026"/></svg><svg x="3175"><use xlink:href="#a"/><use xlink:href="#b" x="-.004" y="17.343"/><use xlink:href="#1"/><use xlink:href="#7" y="2.171"/><use xlink:href="#11" y="4.342"/><use xlink:href="#3" y="6.513"/><use xlink:href="#4" y="8.684"/><use xlink:href="#5" y="10.855"/><use xlink:href="#6" y="13.026"/></svg><svg x="3302"><use xlink:href="#a"/><use xlink:href="#b" x="-.004" y="17.343"/><use xlink:href="#1"/><use xlink:href="#12" y="2.171"/><use xlink:href="#2" y="4.342"/><use xlink:href="#3" y="6.513"/><use xlink:href="#4" y="8.684"/><use xlink:href="#5" y="10.855"/><use xlink:href="#6" y="13.026"/></svg><svg x="3429"><use xlink:href="#a"/><use xlink:href="#b" x="-.004" y="17.343"/><use xlink:href="#1"/><use xlink:href="#12" y="2.171"/><use xlink:href="#2" y="4.342"/><use xlink:href="#3" y="6.513"/><use xlink:href="#4" y="8.684"/><use xlink:href="#5" y="10.855"/><use xlink:href="#6" y="13.026"/></svg><svg x="3556"><use xlink:href="#a"/><use xlink:href="#b" x="-.004" y="17.343"/><use xlink:href="#1"/><use xlink:href="#12" y="2.171"/><use xlink:href="#2" y="4.342"/><use xlink:href="#3" y="6.513"/><use xlink:href="#4" y="8.684"/><use xlink:href="#5" y="10.855"/><use xlink:href="#6" y="13.026"/></svg><svg x="3683"><use xlink:href="#a"/><use xlink:href="#b" x="-.004" y="17.343"/><use xlink:href="#1"/><use xlink:href="#12" y="2.171"/><use xlink:href="#2" y="4.342"/><use xlink:href="#3" y="6.513"/><use xlink:href="#4" y="8.684"/><use xlink:href="#5" y="10.855"/><use xlink:href="#6" y="13.026"/></svg><svg x="3810"><use xlink:href="#a"/><use xlink:href="#b" x="-.004" y="17.343"/><use xlink:href="#1"/><text y="3.841" class="f">|</text><text x="2.004" y="3.841" class="f">|</text><text x="4.008" y="3.841" class="f">X</text><text x="8.016" y="3.841" class="f">|#|</text><use xlink:href="#2" y="4.342"/><use xlink:href="#3" y="6.513"/><use xlink:href="#4" y="8.684"/><use xlink:href="#5" y="10.855"/><use xlink:href="#6" y="13.026"/></svg><svg x="3937"><use xlink:href="#a"/><use xlink:href="#b" x="-.004" y="17.343"/><use xlink:href="#1"/><use xlink:href="#13" y="2.171"/><use xlink:href="#2" y="4.342"/><use xlink:href="#3" y="6.513"/><use xlink:href="#4" y="8.684"/><use xlink:href="#5" y="10.855"/><use xlink:href="#6" y="13.026"/></svg><svg x="4064"><use xlink:href="#a"/><use xlink:href="#b" x="-.004" y="17.343"/><use xlink:href="#1"/><use xlink:href="#13" y="2.171"/><use xlink:href="#2" y="4.342"/><use xlink:href="#3" y="6.513"/><use xlink:href="#4" y="8.684"/><use xlink:href="#5" y="10.855"/><use xlink:href="#6" y="13.026"/></svg><svg x="4191"><use xlink:href="#a"/><use xlink:href="#b" x="-.004" y="13.001"/><use xlink:href="#1"/><use xlink:href="#13" y="2.171"/><use xlink:href="#2" y="4.342"/><use xlink:href="#3" y="6.513"/><use xlink:href="#4" y="8.684"/><use xlink:href="#5" y="10.855"/></svg><svg x="4318"><use xlink:href="#a"/><use xlink:href="#b" x="-.004" y="17.343"/><use xlink:href="#1"/><use xlink:href="#13" y="2.171"/><use xlink:href="#2" y="4.342"/><use xlink:href="#3" y="6.513"/><use xlink:href="#4" y="8.684"/><use xlink:href="#5" y="10.855"/><use xlink:href="#6" y="13.026"/></svg><svg x="4445"><use xlink:href="#a"/><use xlink:href="#b" x="-.004" y="17.343"/><use xlink:href="#1"/><use xlink:href="#13" y="2.171"/><use xlink:href="#2" y="4.342"/><use xlink:href="#3" y="6.513"/><use xlink:href="#4" y="8.684"/><use xlink:href="#5" y="10.855"/><use xlink:href="#6" y="13.026"/></svg><svg x="4572"><use xlink:href="#a"/><use xlink:href="#b" x="-.004" y="17.343"/><use xlink:href="#1"/><use xlink:href="#13" y="2.171"/><use xlink:href="#2" y="4.342"/><use xlink:href="#3" y="6.513"/><use xlink:href="#4" y="8.684"/><use xlink:href="#5" y="10.855"/><use xlink:href="#6" y="13.026"/></svg><svg x="4699"><use xlink:href="#a"/><use xlink:href="#b" x="-.004" y="17.343"/><use xlink:href="#1"/><text y="3.841" class="f">|</text><text x="2.004" y="3.841" class="f">|</text><text x="6.012" y="3.841" class="f">X</text><text x="8.016" y="3.841" class="f">|#|</text><use xlink:href="#2" y="4.342"/><use xlink:href="#3" y="6.513"/><use xlink:href="#4" y="8.684"/><use xlink:href="#5" y="10.855"/><use xlink:href="#6" y="13.026"/></svg><svg x="4826"><use xlink:href="#a"/><use xlink:href="#b" x="-.004" y="17.343"/><use xlink:href="#1"/><text y="3.841" class="f">|</text><text x="2.004" y="3.841" class="f">|</text><text x="7.014" y="3.841" class="f">X|#|</text><use xlink:href="#2" y="4.342"/><use xlink:href="#3" y="6.513"/><use xlink:href="#4" y="8.684"/><use xlink:href="#5" y="10.855"/><use xlink:href="#6" y="13.026"/></svg><svg x="4953"><use xlink:href="#a"/><use xlink:href="#b" x="-.004" y="17.343"/><use xlink:href="#1"/><use xlink:href="#7" y="2.171"/><text y="6.012" class="f">|</text><text x="2.004" y="6.012" class="f">|</text><text x="4.008" y="6.012" class="f">--+X|</text><text x="10.02" y="6.012" class="f">|</text><use xlink:href="#3" y="6.513"/><use xlink:href="#4" y="8.684"/><use xlink:href="#5" y="10.855"/><use xlink:href="#6" y="13.026"/></svg><svg x="5080"><use xlink:href="#a"/><use xlink:href="#b" x="-.004" y="17.343"/><use xlink:href="#1"/><use xlink:href="#7" y="2.171"/><use xlink:href="#2" y="4.342"/><use xlink:href="#14" y="6.513"/><use xlink:href="#4" y="8.684"/><use xlink:href="#5" y="10.855"/><use xlink:href="#6" y="13.026"/></svg><svg x="5207"><use xlink:href="#a"/><use xlink:href="#b" x="-.004" y="17.343"/><use xlink:href="#1"/><use xlink:href="#7" y="2.171"/><use xlink:href="#2" y="4.342"/><use xlink:href="#3" y="6.513"/><use xlink:href="#15" y="8.684"/><use xlink:href="#5" y="10.855"/><use xlink:href="#6" y="13.026"/></svg><svg x="5334"><use xlink:href="#a"/><use xlink:href="#b" x="-.004" y="17.343"/><use xlink:href="#1"/><use xlink:href="#7" y="2.171"/><use xlink:href="#2" y="4.342"/><use xlink:href="#3" y="6.513"/><use xlink:href="#4" y="8.684"/><use xlink:href="#16" y="10.855"/><use xlink:href="#6" y="13.026"/></svg><svg x="5461"><use xlink:href="#a"/><use xlink:href="#b" x="-.004" y="17.343"/><use xlink:href="#1"/><use xlink:href="#7" y="2.171"/><use xlink:href="#2" y="4.342"/><use xlink:href="#3" y="6.513"/><use xlink:href="#4" y="8.684"/><use xlink:href="#16" y="10.855"/><use xlink:href="#6" y="13.026"/></svg><svg x="5588"><use xlink:href="#a"/><use xlink:href="#b" x="-.004" y="17.343"/><use xlink:href="#1"/><use xlink:href="#7" y="2.171"/><use xlink:href="#2" y="4.342"/><use xlink:href="#3" y="6.513"/><use xlink:href="#4" y="8.684"/><use xlink:href="#16" y="10.855"/><use xlink:href="#6" y="13.026"/></svg><svg x="5715"><use xlink:href="#a"/><use xlink:href="#b" x="-.004" y="17.343"/><use xlink:href="#1"/><use xlink:href="#7" y="2.171"/><use xlink:href="#2" y="4.342"/><use xlink:href="#3" y="6.513"/><use xlink:href="#4" y="8.684"/><use xlink:href="#16" y="10.855"/><use xlink:href="#6" y="13.026"/></svg><svg x="5842"><use xlink:href="#a"/><use xlink:href="#b" x="-.004" y="17.343"/><use xlink:href="#1"/><use xlink:href="#7" y="2.171"/><use xlink:href="#2" y="4.342"/><use xlink:href="#3" y="6.513"/><use xlink:href="#4" y="8.684"/><use xlink:href="#16" y="10.855"/><use xlink:href="#6" y="13.026"/></svg><svg x="5969"><use xlink:href="#a"/><use xlink:href="#b" x="-.004" y="17.343"/><use xlink:href="#1"/><use xlink:href="#7" y="2.171"/><use xlink:href="#2" y="4.342"/><use xlink:href="#3" y="6.513"/><use xlink:href="#15" y="8.684"/><use xlink:href="#5" y="10.855"/><use xlink:href="#6" y="13.026"/></svg><svg x="6096"><use xlink:href="#a"/><use xlink:href="#b" x="-.004" y="17.343"/><use xlink:href="#1"/><use xlink:href="#7" y="2.171"/><use xlink:href="#2" y="4.342"/><use xlink:href="#14" y="6.513"/><use xlink:href="#4" y="8.684"/><use xlink:href="#5" y="10.855"/><use xlink:href="#6" y="13.026"/></svg><svg x="6223"><use xlink:href="#a"/><use xlink:href="#b" x="-.004" y="17.343"/><use xlink:href="#1"/><use xlink:href="#7" y="2.171"/><use xlink:href="#2" y="4.342"/><use xlink:href="#3" y="6.513"/><use xlink:href="#15" y="8.684"/><use xlink:href="#5" y="10.855"/><use xlink:href="#6" y="13.026"/></svg><svg x="6350"><use xlink:href="#a"/><use xlink:href="#b" x="-.004" y="17.343"/><use xlink:href="#1"/><use xlink:href="#7" y="2.171"/><use xlink:href="#2" y="4.342"/><use xlink:href="#3" y="6.513"/><use xlink:href="#15" y="8.684"/><use xlink:href="#5" y="10.855"/><use xlink:href="#6" y="13.026"/></svg><svg x="6477"><use xlink:href="#a"/><use xlink:href="#b" x="-.004" y="17.343"/><use xlink:href="#1"/><use xlink:href="#7" y="2.171"/><use xlink:href="#2" y="4.342"/><use xlink:href="#3" y="6.513"/><use xlink:href="#15" y="8.684"/><use xlink:href="#5" y="10.855"/><use xlink:href="#6" y="13.026"/></svg><svg x="6604"><use xlink:href="#a"/><use xlink:href="#b" x="-.004" y="17.343"/><use xlink:href="#1"/><use xlink:href="#7" y="2.171"/><use xlink:href="#2" y="4.342"/><use xlink:href="#3" y="6.513"/><use xlink:href="#4" y="8.684"/><use xlink:href="#16" y="10.855"/><use xlink:href="#6" y="13.026"/></svg><svg x="6731"><use xlink:href="#a"/><use xlink:href="#b" x="-.004" y="17.343"/><use xlink:href="#1"/><use xlink:href="#7" y="2.171"/><use xlink:href="#2" y="4.342"/><use xlink:href="#3" y="6.513"/><use xlink:href="#4" y="8.684"/><use xlink:href="#16" y="10.855"/><use xlink:href="#6" y="13.026"/></svg><svg x="6858"><use xlink:href="#a"/><use xlink:href="#b" x="-.004" y="17.343"/><use xlink:href="#1"/><use xlink:href="#7" y="2.171"/><use xlink:href="#2" y="4.342"/><use xlink:href="#3" y="6.513"/><use xlink:href="#15" y="8.684"/><use xlink:href="#5" y="10.855"/><use xlink:href="#6" y="13.026"/></svg><svg x="6985"><use xlink:href="#a"/><use xlink:href="#b" x="-.004" y="17.343"/><use xlink:href="#1"/><use xlink:href="#7" y="2.171"/><use xlink:href="#2" y="4.342"/><use xlink:href="#14" y="6.513"/><use xlink:href="#4" y="8.684"/><use xlink:href="#5" y="10.855"/><use xlink:href="#6" y="13.026"/></svg><svg x="7112"><use xlink:href="#a"/><use xlink:href="#b" x="-.004" y="17.343"/><use xlink:href="#1"/><use xlink:href="#7" y="2.171"/><use xlink:href="#2" y="4.342"/><use xlink:href="#14" y="6.513"/><use xlink:href="#4" y="8.684"/><use xlink:href="#5" y="10.855"/><use xlink:href="#6" y="13.026"/></svg><svg x="7239"><use xlink:href="#a"/><use xlink:href="#b" x="-.004" y="17.343"/><use xlink:href="#1"/><use xlink:href="#7" y="2.171"/><use xlink:href="#2" y="4.342"/><use xlink:href="#14" y="6.513"/><use xlink:href="#4" y="8.684"/><use xlink:href="#5" y="10.855"/><use xlink:href="#6" y="13.026"/></svg><svg x="7366"><use xlink:href="#a"/><use xlink:href="#b" x="-.004" y="17.343"/><use xlink:href="#1"/><use xlink:href="#7" y="2.171"/><use xlink:href="#2" y="4.342"/><use xlink:href="#14" y="6.513"/><use xlink:href="#4" y="8.684"/><use xlink:href="#5" y="10.855"/><use xlink:href="#6" y="13.026"/></svg><svg x="7493"><use xlink:href="#a"/><use xlink:href="#b" x="-.004" y="13.001"/><use xlink:href="#1"/><use xlink:href="#7" y="2.171"/><use xlink:href="#2" y="4.342"/><use xlink:href="#14" y="6.513"/><use xlink:href="#4" y="8.684"/><use xlink:href="#5" y="10.855"/></svg><svg x="7620"><use xlink:href="#a"/><use xlink:href="#b" x="-.004" y="17.343"/><use xlink:href="#1"/><use xlink:href="#7" y="2.171"/><use xlink:href="#2" y="4.342"/><use xlink:href="#14" y="6.513"/><use xlink:href="#4" y="8.684"/><use xlink:href="#5" y="10.855"/><use xlink:href="#6" y="13.026"/></svg><svg x="7747"><use xlink:href="#a"/><use xlink:href="#b" x="-.004" y="17.343"/><use xlink:href="#1"/><use xlink:href="#7" y="2.171"/><use xlink:href="#2" y="4.342"/><use xlink:href="#3" y="6.513"/><use xlink:href="#15" y="8.684"/><use xlink:href="#5" y="10.855"/><use xlink:href="#6" y="13.026"/></svg><svg x="7874"><use xlink:href="#a"/><use xlink:href="#b" x="-.004" y="17.343"/><use xlink:href="#1"/><use xlink:href="#7" y="2.171"/><use xlink:href="#2" y="4.342"/><use xlink:href="#3" y="6.513"/><use xlink:href="#4" y="8.684"/><use xlink:href="#16" y="10.855"/><use xlink:href="#6" y="13.026"/></svg><svg x="8001"><use xlink:href="#a"/><use xlink:href="#b" x="-.004" y="17.343"/><use xlink:href="#1"/><use xlink:href="#7" y="2.171"/><use xlink:href="#2" y="4.342"/><use xlink:href="#3" y="6.513"/><use xlink:href="#4" y="8.684"/><text y="12.525" class="f">|</text><text x="6.012" y="12.525" class="f">|</text><text x="8.016" y="12.525" class="f">X</text><text x="10.02" y="12.525" class="f">|</text><use xlink:href="#6" y="13.026"/></svg><svg x="8128"><use xlink:href="#a"/><use xlink:href="#b" x="-.004" y="17.343"/><use xlink:href="#1"/><use xlink:href="#7" y="2.171"/><use xlink:href="#2" y="4.342"/><use xlink:href="#3" y="6.513"/><use xlink:href="#4" y="8.684"/><use xlink:href="#17" y="10.855"/><use xlink:href="#6" y="13.026"/></svg><svg x="8255"><use xlink:href="#a"/><use xlink:href="#b" x="-.004" y="17.343"/><use xlink:href="#1"/><use xlink:href="#7" y="2.171"/><use xlink:href="#2" y="4.342"/><use xlink:href="#3" y="6.513"/><use xlink:href="#4" y="8.684"/><use xlink:href="#17" y="10.855"/><use xlink:href="#6" y="13.026"/></svg><svg x="8382"><use xlink:href="#a"/><use xlink:href="#b" x="-.004" y="17.343"/><use xlink:href="#1"/><use xlink:href="#7" y="2.171"/><use xlink:href="#2" y="4.342"/><use xlink:href="#3" y="6.513"/><use xlink:href="#4" y="8.684"/><use xlink:href="#17" y="10.855"/><use xlink:href="#6" y="13.026"/></svg><svg x="8509"><use xlink:href="#a"/><use xlink:href="#b" x="-.004" y="17.343"/><use xlink:href="#1"/><use xlink:href="#7" y="2.171"/><use xlink:href="#2" y="4.342"/><use xlink:href="#3" y="6.513"/><use xlink:href="#4" y="8.684"/><use xlink:href="#17" y="10.855"/><use xlink:href="#6" y="13.026"/></svg><svg x="8636"><use xlink:href="#a"/><use xlink:href="#b" x="-.004" y="17.343"/><use xlink:href="#1"/><use xlink:href="#7" y="2.171"/><use xlink:href="#2" y="4.342"/><use xlink:href="#3" y="6.513"/><text y="10.354" class="f">|</text><text x="2.004" y="10.354" class="f">+--</text><text x="6.012" y="10.354" class="f">|</text><text x="8.016" y="10.354" class="f">|X|</text><use xlink:href="#5" y="10.855"/><use xlink:href="#6" y="13.026"/></svg><svg x="8763"><use xlink:href="#a"/><use xlink:href="#b" x="-.004" y="17.343"/><use xlink:href="#1"/><use xlink:href="#7" y="2.171"/><use xlink:href="#2" y="4.342"/><use xlink:href="#18" y="6.513"/><use xlink:href="#4" y="8.684"/><use xlink:href="#5" y="10.855"/><use xlink:href="#6" y="13.026"/></svg><svg x="8890"><use xlink:href="#a"/><use xlink:href="#b" x="-.004" y="17.343"/><use xlink:href="#1"/><use xlink:href="#7" y="2.171"/><use xlink:href="#2" y="4.342"/><use xlink:href="#18" y="6.513"/><use xlink:href="#4" y="8.684"/><use xlink:href="#5" y="10.855"/><use xlink:href="#6" y="13.026"/></svg><svg x="9017"><use xlink:href="#a"/><use xlink:href="#b" x="-.004" y="17.343"/><use xlink:href="#1"/><use xlink:href="#7" y="2.171"/><use xlink:href="#2" y="4.342"/><use xlink:href="#18" y="6.513"/><use xlink:href="#4" y="8.684"/><use xlink:href="#5" y="10.855"/><use xlink:href="#6" y="13.026"/></svg><svg x="9144"><use xlink:href="#a"/><use xlink:href="#b" x="-.004" y="17.343"/><use xlink:href="#1"/><use xlink:href="#7" y="2.171"/><use xlink:href="#2" y="4.342"/><use xlink:href="#18" y="6.513"/><use xlink:href="#4" y="8.684"/><use xlink:href="#5" y="10.855"/><use xlink:href="#6" y="13.026"/></svg><svg x="9271"><use xlink:href="#a"/><use xlink:href="#b" x="-.004" y="17.343"/><use xlink:href="#1"/><use xlink:href="#7" y="2.171"/><use xlink:href="#2" y="4.342"/><use xlink:href="#3" y="6.513"/><use xlink:href="#4" y="8.684"/><use xlink:href="#5" y="10.855"/><use xlink:href="#6" y="13.026"/></svg></svg></g></g></svg></svg>